<?xml version="1.0" encoding="UTF-8"?> <svg xmlns="http://www.w3.org/2000/svg" id="Layer_1" data-name="Layer 1" width="408.35" height="98.29" viewBox="0 0 408.35 98.29"><defs><style> .cls-1 { fill: #fbc9cc; } </style></defs><title>cloudy</title><rect class="cls-1" x="30.77" y="23.57" width="173.01" height="22.97" rx="11.49"></rect><rect class="cls-1" x="133.65" y="38.36" width="150.63" height="22.97" rx="11.49"></rect><rect class="cls-1" x="228.33" y="75.32" width="101.79" height="22.97" rx="11.49"></rect><rect class="cls-1" x="5.79" y="61.33" width="58.94" height="22.97" rx="11.49"></rect><path class="cls-1" d="M1075.92,975a10,10,0,0,0-10,10v3a10,10,0,0,0,10,10h152.43V975Z" transform="translate(-820 -975)"></path><path class="cls-1" d="M838.78,988v-3a10,10,0,0,0-10-10H820v23h8.79A10,10,0,0,0,838.78,988Z" transform="translate(-820 -975)"></path></svg> 